# Blender v2.79 (sub 0) OBJ File: ''
# www.blender.org
mtllib demo_concave.mtl
o Cube_Cube.001
v -1.000000 -1.000000 1.000000
v -1.000000 1.000000 1.000000
v -1.000000 -1.000000 -1.000000
v -1.000000 1.000000 -1.000000
v 1.000000 -1.000000 1.000000
v 1.000000 1.000000 1.000000
v 1.000000 -1.000000 -1.000000
v 1.000000 1.000000 -1.000000
v -1.000000 3.000000 1.000000
v -1.000000 3.000000 -1.000000
v 1.000000 3.000000 -1.000000
v 1.000000 3.000000 1.000000
v -1.000000 -1.000000 3.002145
v -1.000000 1.000000 3.002145
v 1.000000 1.000000 3.002145
v 1.000000 -1.000000 3.002145
v -3.000000 -1.000000 -1.000000
v -3.000000 -1.000000 1.000000
v -3.000000 1.000000 1.000000
v -3.000000 1.000000 -1.000000
v -1.000000 1.000000 -3.000000
v -1.000000 -1.000000 -3.000000
v 1.000000 -1.000000 -3.000000
v 1.000000 1.000000 -3.000000
v 3.000000 1.000000 -1.000000
v 3.000000 -1.000000 -1.000000
v 3.000000 -1.000000 1.000000
v 3.000000 1.000000 1.000000
v -1.000000 -5.000000 -1.000000
v -1.000000 -5.000000 1.000000
v 1.000000 -5.000000 -1.000000
v 1.000000 -5.000000 1.000000
vn 0.0000 1.0000 0.0000
vn 0.0000 0.0000 1.0000
vn -1.0000 0.0000 0.0000
vn 0.0000 0.0000 -1.0000
vn 1.0000 0.0000 0.0000
vn 0.0000 -1.0000 0.0000
usemtl None
s off
f 2//1 4//1 20//1 19//1
f 4//1 8//1 24//1 21//1
f 6//2 5//2 27//2 28//2
f 6//1 2//1 14//1 15//1
f 1//3 3//3 29//3 30//3
f 4//3 2//3 9//3 10//3
f 11//1 10//1 9//1 12//1
f 2//2 6//2 12//2 9//2
f 8//4 4//4 10//4 11//4
f 6//5 8//5 11//5 12//5
f 16//2 15//2 14//2 13//2
f 5//5 6//5 15//5 16//5
f 2//3 1//3 13//3 14//3
f 1//6 5//6 16//6 13//6
f 18//3 19//3 20//3 17//3
f 3//6 1//6 18//6 17//6
f 4//4 3//4 17//4 20//4
f 1//2 2//2 19//2 18//2
f 22//4 21//4 24//4 23//4
f 3//3 4//3 21//3 22//3
f 8//5 7//5 23//5 24//5
f 7//6 3//6 22//6 23//6
f 26//5 25//5 28//5 27//5
f 5//6 7//6 26//6 27//6
f 8//1 6//1 28//1 25//1
f 7//4 8//4 25//4 26//4
f 29//6 31//6 32//6 30//6
f 7//5 5//5 32//5 31//5
f 5//2 1//2 30//2 32//2
f 3//4 7//4 31//4 29//4
